<?xml version="1.0" encoding="UTF-8"?><svg id="Layer_1" xmlns="http://www.w3.org/2000/svg" viewBox="0 0 2000 609.76"><defs><style>.cls-1{fill:#97c447;}.cls-2{fill:#c5f274;}</style></defs><path d="M1527.31,173.09v192.04h96.03c13.15,0,25.54-2.45,37.13-7.36,11.6-5.13,21.74-12.04,30.45-20.74,8.7-8.7,15.5-18.85,20.41-30.45,5.13-11.82,7.69-24.31,7.69-37.47s-2.56-25.54-7.69-37.14c-4.91-11.82-11.7-22.08-20.41-30.78-8.7-8.7-18.85-15.5-30.45-20.41-11.6-5.13-23.98-7.69-37.13-7.69h-96.03ZM1527.31,556.84h-96.02V77.07h192.05c17.61,0,34.57,2.34,50.85,7.03,16.27,4.46,31.44,10.93,45.49,19.4,14.28,8.25,27.21,18.29,38.81,30.11,11.83,11.6,21.87,24.53,30.12,38.81,8.47,14.28,14.94,29.55,19.4,45.84,4.69,16.28,7.04,33.23,7.04,50.85,0,26.32-5.02,51.19-15.06,74.61-10.04,23.2-23.76,43.49-41.15,60.89-17.39,17.4-37.81,31.11-61.22,41.15-23.2,10.04-47.96,15.06-74.27,15.06h-96.03v96.02ZM1975.67,556.84h-96.02V77.07h96.02v479.78Z"/><path class="cls-1" d="M1053.25,301.55c0,17.28,4.98,33.37,13.6,46.95-15.82,2.07-31.82,2.56-47.38,1.82-7-.32-13.92-.89-20.67-1.68-30.38-3.52-52.77-29.24-52.87-59.08,0-2.35.12-4.73.4-7.14,3.8-32.77,33.45-56.27,66.23-52.47,52.11,6.04,68.29-9.67,70.61-13.67,1.94-3.34,6.13-19.19-10.87-48.95-3.31-5.82-7.46-12.17-12.57-19.07-19.68-26.47-14.16-63.9,12.32-83.56,26.48-19.68,63.91-14.16,83.57,12.33,7.48,10.08,14.6,20.94,20.98,32.41,21.61,38.76,34.78,84.26,24.95,128.35-15.74-14.94-37.02-24.1-60.44-24.1-2.47,0-4.91.1-7.32.31-6.93.56-13.63,1.94-20.01,4.04-35.14,11.48-60.53,44.53-60.53,83.51Z"/><path class="cls-1" d="M1335.35,320.77c-3.79,32.77-33.43,56.27-66.22,52.47-52.14-6.04-68.31,9.69-70.61,13.69-1.79,3.1-5.53,16.96,7.5,42.69,3.76,7.44,8.93,15.86,15.94,25.3,19.68,26.48,14.16,63.9-12.32,83.57-26.48,19.67-63.9,14.15-83.57-12.34-9.51-12.8-18.44-26.9-26.02-41.85-18.62-36.76-29.05-78.71-19.81-119.42,15.78,15.18,37.24,24.52,60.87,24.52,2.23,0,4.44-.08,6.63-.25,3.3-.25,6.56-.67,9.75-1.28,40.69-7.66,71.49-43.4,71.49-86.33,0-17.27-4.98-33.36-13.58-46.93,12.22-1.56,24.57-2.19,36.73-2.04,10.46.13,20.78.83,30.76,1.99,27.44,3.18,48.37,24.46,52.22,50.54.76,5.08.86,10.33.24,15.66Z"/><path class="cls-2" d="M1157.49,387.88c-.94,2.69-1.93,5.39-2.98,8.08-9.8,25.41-24.15,50.9-42.91,76.14-3.43,4.62-7.31,8.7-11.54,12.22-12.98,10.83-29.21,16.48-45.59,16.48-14.74,0-29.6-4.57-42.35-14.03-31.52-23.43-38.08-67.97-14.67-99.48,9.83-13.22,17.08-25.75,22.03-36.96,8.96-20.25,10.4-36.17,5.89-43.98-6.76-11.71-36.04-20.97-79.44-16.78-1.52.14-3.06.31-4.61.49-39,4.52-74.3-23.44-78.82-62.45-4.53-39.01,23.43-74.29,62.44-78.82,46.13-5.34,87.94-2.12,124.26,9.57,8.04,2.59,15.74,5.58,23.11,8.98,18.19,8.37,34.25,19.13,47.86,32.04,4.87,4.6,9.43,9.48,13.63,14.62-6.93.56-13.63,1.94-20.01,4.04-35.14,11.48-60.53,44.53-60.53,83.51,0,17.28,4.98,33.37,13.6,46.95,3.79,6.01,8.3,11.51,13.39,16.4,15.78,15.18,37.24,24.52,60.87,24.52,2.23,0,4.44-.08,6.63-.25,3.3-.25,6.56-.67,9.75-1.28Z"/><path class="cls-2" d="M1349.73,446.56c-14.42,1.67-28.41,2.51-41.95,2.51-29.78,0-57.33-4.04-82.29-12.08-6.72-2.16-13.22-4.62-19.47-7.35-19.69-8.59-37-19.91-51.52-33.67-2.33-2.2-4.59-4.46-6.76-6.79,3.3-.25,6.56-.67,9.75-1.28,40.69-7.66,71.49-43.4,71.49-86.33,0-17.27-4.98-33.36-13.58-46.93-3.9-6.18-8.57-11.84-13.85-16.83-15.74-14.94-37.02-24.1-60.44-24.1-2.47,0-4.91.1-7.32.31-6.93.56-13.63,1.94-20.01,4.04,1.84-6.21,3.98-12.44,6.38-18.66,9.81-25.41,24.17-50.89,42.92-76.12,3.96-5.32,8.51-9.94,13.52-13.82,24.58-19.08,59.76-20.32,85.97-.86,31.52,23.42,38.08,67.97,14.67,99.48-12.1,16.28-20.3,31.52-25.11,44.52-6.15,16.64-6.73,29.61-2.81,36.42,7,12.13,38.12,21.63,84.04,16.29.59-.07,1.17-.12,1.75-.18,38.3-3.51,72.62,24.19,77.07,62.62,4.53,39.01-23.44,74.29-62.45,78.82Z"/><path d="M264.22,556.84h-95.69V173.09H24.33v-96.02h383.75v96.02h-143.87v383.75ZM563.02,173.09v192.04h96.02c13.16,0,25.54-2.45,37.14-7.36,11.6-5.13,21.75-12.04,30.45-20.74,8.7-8.7,15.5-18.85,20.41-30.45,5.13-11.82,7.7-24.31,7.7-37.47s-2.57-25.54-7.7-37.14c-4.91-11.82-11.71-22.08-20.41-30.78-8.7-8.7-18.85-15.5-30.45-20.41-11.6-5.13-23.98-7.69-37.14-7.69h-96.02ZM563.02,556.84h-96.02V77.07h192.04c17.62,0,34.57,2.34,50.85,7.03,16.28,4.46,31.45,10.93,45.5,19.4,14.28,8.25,27.21,18.29,38.81,30.11,11.82,11.6,21.86,24.53,30.11,38.81,8.48,14.28,14.94,29.55,19.41,45.84,4.68,16.28,7.03,33.23,7.03,50.85,0,16.51-2.12,32.56-6.36,48.18-4.01,15.61-9.93,30.45-17.73,44.5-7.58,14.05-16.95,26.99-28.1,38.81-11.15,11.82-23.64,22.08-37.47,30.78l53.2,125.47h-102.04l-41.82-96.69-107.4.67v96.02Z"/></svg>